<svg width="18" height="12" viewBox="0 0 18 12" fill="none" xmlns="http://www.w3.org/2000/svg">
<path fill-rule="evenodd" clip-rule="evenodd" d="M12.4929 0.934789C12.6427 1.06556 12.7344 1.25048 12.7479 1.44888C12.7614 1.64728 12.6956 1.84292 12.5649 1.99279L4.70788 10.9928C4.63749 11.0734 4.55064 11.1381 4.45319 11.1824C4.35573 11.2266 4.24993 11.2496 4.14288 11.2496C4.03584 11.2496 3.93003 11.2266 3.83258 11.1824C3.73512 11.1381 3.64828 11.0734 3.57788 10.9928L0.434883 7.39279C0.308808 7.24232 0.246755 7.04841 0.262046 6.8527C0.277337 6.65698 0.368753 6.47507 0.516668 6.346C0.664584 6.21694 0.857208 6.15101 1.05319 6.16237C1.24917 6.17374 1.43288 6.26149 1.56488 6.40679L4.14288 9.35979L11.4349 1.00679C11.5657 0.856977 11.7506 0.765234 11.949 0.751732C12.1474 0.73823 12.343 0.804075 12.4929 0.934789ZM17.5179 1.01979C17.8179 1.30479 17.8289 1.77979 17.5429 2.07979L8.97188 11.0798C8.89702 11.1584 8.80599 11.2198 8.70506 11.2598C8.60414 11.2998 8.49574 11.3175 8.38734 11.3115C8.27894 11.3055 8.17314 11.276 8.07724 11.2251C7.98134 11.1743 7.89763 11.1032 7.83188 11.0168L7.40288 10.4538C7.29051 10.3073 7.23612 10.1245 7.25013 9.94039C7.26414 9.75629 7.34556 9.58382 7.47882 9.45602C7.61207 9.32822 7.78778 9.25406 7.97231 9.24774C8.15683 9.24143 8.3372 9.3034 8.47888 9.42179L16.4569 1.04479C16.594 0.900835 16.7827 0.817231 16.9815 0.812356C17.1803 0.80748 17.3728 0.881732 17.5169 1.01879" fill="white"/>
</svg>
