<svg width="23" height="23" viewBox="0 0 23 23" fill="none" xmlns="http://www.w3.org/2000/svg">
<path d="M15.3333 18.6481H7.66667C6.90417 18.6481 6.1729 18.3583 5.63373 17.8426C5.09457 17.3269 4.79167 16.6274 4.79167 15.8981V6.73141C4.79167 6.48829 4.6907 6.25513 4.51098 6.08322C4.33125 5.91132 4.0875 5.81474 3.83333 5.81474C3.57917 5.81474 3.33541 5.91132 3.15569 6.08322C2.97597 6.25513 2.875 6.48829 2.875 6.73141V15.8981C2.875 17.1136 3.37983 18.2794 4.27845 19.139C5.17706 19.9985 6.39584 20.4814 7.66667 20.4814H15.3333C15.5875 20.4814 15.8313 20.3848 16.011 20.2129C16.1907 20.041 16.2917 19.8079 16.2917 19.5647C16.2917 19.3216 16.1907 19.0885 16.011 18.9166C15.8313 18.7446 15.5875 18.6481 15.3333 18.6481ZM20.125 8.50974C20.115 8.42553 20.0957 8.34257 20.0675 8.26224V8.17974C20.0214 8.08549 19.96 7.99885 19.8854 7.92307L14.1354 2.42307C14.0562 2.35177 13.9656 2.29298 13.8671 2.2489H13.7808L13.4742 2.14807H9.58333C8.82084 2.14807 8.08957 2.4378 7.5504 2.95353C7.01123 3.46925 6.70833 4.16873 6.70833 4.89807V14.0647C6.70833 14.7941 7.01123 15.4936 7.5504 16.0093C8.08957 16.525 8.82084 16.8147 9.58333 16.8147H17.25C18.0125 16.8147 18.7438 16.525 19.2829 16.0093C19.8221 15.4936 20.125 14.7941 20.125 14.0647V8.56474C20.125 8.56474 20.125 8.56474 20.125 8.50974ZM14.375 5.27391L16.8571 7.64807H15.3333C15.0792 7.64807 14.8354 7.55149 14.6557 7.37959C14.476 7.20768 14.375 6.97452 14.375 6.73141V5.27391ZM18.2083 14.0647C18.2083 14.3079 18.1074 14.541 17.9276 14.7129C17.7479 14.8848 17.5042 14.9814 17.25 14.9814H9.58333C9.32917 14.9814 9.08541 14.8848 8.90569 14.7129C8.72597 14.541 8.625 14.3079 8.625 14.0647V4.89807C8.625 4.65496 8.72597 4.4218 8.90569 4.24989C9.08541 4.07798 9.32917 3.9814 9.58333 3.9814H12.4583V6.73141C12.4583 7.46075 12.7612 8.16022 13.3004 8.67595C13.8396 9.19167 14.5708 9.48141 15.3333 9.48141H18.2083V14.0647Z" fill="#DF1C26"/>
</svg>
