<svg width="32" height="23" viewBox="0 0 32 23" fill="none" xmlns="http://www.w3.org/2000/svg">
<path d="M15.0042 0.519371C15.7674 -0.24177 16.5829 -0.166318 17.4506 0.745724C17.5028 0.800447 17.5645 0.827808 17.6356 0.827808C22.106 0.831125 26.5779 0.831953 31.0513 0.830294C32.1939 0.830294 32.4921 3.06646 30.8859 3.06894C26.4952 3.0706 22.1046 3.0706 17.7139 3.06894C17.6399 3.06894 17.579 3.10045 17.5311 3.16347C15.8074 5.49912 13.102 2.41974 15.0042 0.519371Z" fill="#242021"/>
<path d="M0.0340099 3.57641C-0.10746 2.5516 0.177661 1.77057 1.16795 1.76808C5.12477 1.75979 9.08085 1.75896 13.0362 1.76559C13.1102 1.76559 13.1465 1.80871 13.145 1.89494C13.1349 2.6113 13.3054 3.26383 13.6565 3.85251C13.716 3.952 13.6928 4.00175 13.5869 4.00175H2.31713C2.19234 4.00175 2.13938 4.07223 2.15824 4.21318C2.77926 8.92761 3.39448 13.6669 4.00389 18.4311C4.13883 19.4957 4.89406 19.7917 5.78641 19.7917C12.6292 19.7983 19.4727 19.7992 26.317 19.7942C27.1636 19.7942 27.6076 19.0728 27.7317 18.1326C28.3237 13.6354 28.9135 9.13904 29.5012 4.6435C29.5128 4.55395 29.5578 4.50835 29.6361 4.50669L31.436 4.48182C31.4868 4.48016 31.5086 4.50752 31.5013 4.5639C30.9064 9.11748 30.313 13.6727 29.721 18.2296C29.3488 21.0951 28.0081 22.0328 25.5748 22.0328C19.2674 22.0361 12.9608 22.037 6.65482 22.0353C3.52941 22.0353 2.36936 21.2692 1.91883 17.7719C1.30797 13.0376 0.679694 8.30576 0.0340099 3.57641Z" fill="#242021"/>
<path d="M11.2264 9.83975H11.1568C10.6363 9.83975 10.2144 10.322 10.2144 10.9168V15.9065C10.2144 16.5013 10.6363 16.9835 11.1568 16.9835H11.2264C11.7469 16.9835 12.1688 16.5013 12.1688 15.9065V10.9168C12.1688 10.322 11.7469 9.83975 11.2264 9.83975Z" fill="#DF1C26"/>
<path d="M16.0655 9.83975H15.9959C15.4754 9.83975 15.0535 10.322 15.0535 10.9168V15.9065C15.0535 16.5013 15.4754 16.9835 15.9959 16.9835H16.0655C16.586 16.9835 17.0079 16.5013 17.0079 15.9065V10.9168C17.0079 10.322 16.586 9.83975 16.0655 9.83975Z" fill="#DF1C26"/>
<path d="M20.9059 9.83459H20.8406C20.3189 9.83459 19.896 10.3179 19.896 10.9141V15.9038C19.896 16.5 20.3189 16.9833 20.8406 16.9833H20.9059C21.4276 16.9833 21.8505 16.5 21.8505 15.9038V10.9141C21.8505 10.3179 21.4276 9.83459 20.9059 9.83459Z" fill="#DF1C26"/>
</svg>
