<svg width="24" height="24" viewBox="0 0 24 24" fill="none" xmlns="http://www.w3.org/2000/svg">
<path d="M11.712 0C18.5004 0 24 5.3724 24 12C24 18.6276 18.4992 24 11.712 24C7.8828 24 4.3416 22.2756 2.028 19.3848C1.96314 19.3041 1.91518 19.2111 1.88695 19.1115C1.85872 19.0118 1.85081 18.9075 1.86368 18.8048C1.87656 18.702 1.90995 18.6029 1.96189 18.5133C2.01382 18.4237 2.08323 18.3454 2.166 18.2832C2.33478 18.1548 2.54692 18.0971 2.75748 18.1224C2.96803 18.1478 3.16046 18.254 3.294 18.4188C4.30611 19.6767 5.58851 20.6905 7.04602 21.3849C8.50352 22.0794 10.0987 22.4367 11.7132 22.4304C17.6112 22.4304 22.3932 17.76 22.3932 12C22.3932 6.24 17.6112 1.5696 11.7132 1.5696C10.1218 1.5634 8.54878 1.91056 7.10778 2.58602C5.66678 3.26149 4.3937 4.24842 3.3804 5.4756C3.24475 5.63885 3.05083 5.74282 2.83978 5.76545C2.62873 5.78808 2.41718 5.72758 2.25 5.5968C2.16795 5.53347 2.09948 5.45429 2.04865 5.36396C1.99783 5.27363 1.9657 5.174 1.95417 5.071C1.94264 4.968 1.95194 4.86373 1.98153 4.7644C2.01112 4.66507 2.06039 4.5727 2.1264 4.4928C4.4436 1.6728 7.9368 0 11.712 0ZM12.3672 8.2344L15.6156 11.4828C15.93 11.7972 15.936 12.2988 15.6288 12.606L12.456 15.78C12.3815 15.8533 12.2932 15.9112 12.1963 15.9503C12.0993 15.9893 11.9956 16.0088 11.8911 16.0076C11.7865 16.0063 11.6833 15.9844 11.5873 15.9431C11.4912 15.9018 11.4043 15.8419 11.3316 15.7668C11.2566 15.694 11.1968 15.607 11.1556 15.511C11.1143 15.4149 11.0925 15.3116 11.0914 15.2071C11.0903 15.1026 11.1099 14.9989 11.1491 14.9019C11.1882 14.805 11.2462 14.7168 11.3196 14.6424L13.176 12.7848L0.804 12.786C0.699491 12.7876 0.595701 12.7685 0.498614 12.7298C0.401528 12.691 0.313064 12.6335 0.238325 12.5604C0.163585 12.4874 0.104047 12.4002 0.0631437 12.304C0.0222401 12.2078 0.000779786 12.1045 0 12C0 11.5668 0.36 11.2152 0.804 11.2152H13.1256L11.256 9.3444C11.181 9.27157 11.1212 9.18462 11.08 9.08856C11.0387 8.9925 11.0169 8.88923 11.0158 8.7847C11.0147 8.68017 11.0343 8.57646 11.0735 8.47954C11.1126 8.38262 11.1706 8.29441 11.244 8.22C11.3184 8.14702 11.4066 8.08946 11.5033 8.05062C11.6 8.01177 11.7035 7.99241 11.8077 7.99363C11.912 7.99486 12.015 8.01665 12.1108 8.05776C12.2066 8.09887 12.2933 8.15849 12.366 8.2332" fill="#707070"/>
</svg>
